<mxfile host="app.diagrams.net" modified="2024-05-03T03:38:28.231Z" agent="Mozilla/5.0 (Windows NT 10.0; Win64; x64) AppleWebKit/537.36 (KHTML, like Gecko) Chrome/109.0.0.0 Safari/537.36 SLBrowser/9.0.3.4111 SLBChan/128" etag="8Ozfan78OllqJDKizRXH" version="24.3.1" type="github">
  <diagram name="第 1 页" id="QtoNfeMx4AhmyPTobp5a">
    <mxGraphModel dx="916" dy="493" grid="0" gridSize="10" guides="1" tooltips="1" connect="1" arrows="1" fold="1" page="1" pageScale="1" pageWidth="1169" pageHeight="827" math="0" shadow="0">
      <root>
        <mxCell id="0" />
        <mxCell id="1" parent="0" />
        <mxCell id="bpN3n82NGNXdfwb5RgEO-7" value="&lt;font style=&quot;font-size: 19px;&quot;&gt;社区空巢老人互助养老App&lt;/font&gt;" style="rounded=0;whiteSpace=wrap;html=1;rotation=90;horizontal=0;" vertex="1" parent="1">
          <mxGeometry x="-157.62" y="275.63" width="447.75" height="38.5" as="geometry" />
        </mxCell>
        <mxCell id="bpN3n82NGNXdfwb5RgEO-8" value="App端" style="rounded=0;whiteSpace=wrap;html=1;" vertex="1" parent="1">
          <mxGeometry x="165" y="106" width="73" height="33" as="geometry" />
        </mxCell>
        <mxCell id="bpN3n82NGNXdfwb5RgEO-9" value="Web端" style="rounded=0;whiteSpace=wrap;html=1;" vertex="1" parent="1">
          <mxGeometry x="166" y="254" width="78" height="33" as="geometry" />
        </mxCell>
        <mxCell id="bpN3n82NGNXdfwb5RgEO-10" value="管理端" style="rounded=0;whiteSpace=wrap;html=1;" vertex="1" parent="1">
          <mxGeometry x="165" y="404" width="78" height="33" as="geometry" />
        </mxCell>
        <mxCell id="bpN3n82NGNXdfwb5RgEO-15" value="" style="line;strokeWidth=1;html=1;fontSize=9;rotation=90;" vertex="1" parent="1">
          <mxGeometry x="-20" y="266.63" width="298" height="10" as="geometry" />
        </mxCell>
        <mxCell id="bpN3n82NGNXdfwb5RgEO-16" value="" style="line;strokeWidth=1;html=1;" vertex="1" parent="1">
          <mxGeometry x="85" y="265.63" width="44" height="10" as="geometry" />
        </mxCell>
        <mxCell id="bpN3n82NGNXdfwb5RgEO-19" value="" style="line;strokeWidth=1;html=1;" vertex="1" parent="1">
          <mxGeometry x="129" y="117.5" width="36" height="10" as="geometry" />
        </mxCell>
        <mxCell id="bpN3n82NGNXdfwb5RgEO-20" value="" style="line;strokeWidth=1;html=1;" vertex="1" parent="1">
          <mxGeometry x="129" y="265.5" width="36" height="10" as="geometry" />
        </mxCell>
        <mxCell id="bpN3n82NGNXdfwb5RgEO-21" value="" style="line;strokeWidth=1;html=1;" vertex="1" parent="1">
          <mxGeometry x="128" y="415" width="36" height="10" as="geometry" />
        </mxCell>
      </root>
    </mxGraphModel>
  </diagram>
</mxfile>
